PathFileType	4	(X/Y/Z)	 s08c0102.trc
DataRate	CameraRate	NumFrames	NumMarkers	Units	OrigDataRate	OrigDataStartFrame	OrigNumFrames
200	200	4	50	mm	200	751	2000
Frame#	Time	racr			lacr			c7			jug			rlel			rdr			llel			ldr			s2			lic			ric			lasi			rasi			rpsi			lpsi			rgt			lgt			rth1			rth2			rth3			rth4			rlfc			rmfc			rsh1			rsh2			rsh3			rsh4			rlmal			rmmal			rcal			rtoe			rmt5			lth1			lth2			lth4			lth3			llfc			lmfc			llmal			lmmal			lcal			lmt5			lsh1			lsh2			lsh3			lsh4			ltoe			SBIKE			LBIKE			RBIKE			
		X1	Y1	Z1	X2	Y2	Z2	X3	Y3	Z3	X4	Y4	Z4	X5	Y5	Z5	X6	Y6	Z6	X7	Y7	Z7	X8	Y8	Z8	X9	Y9	Z9	X10	Y10	Z10	X11	Y11	Z11	X12	Y12	Z12	X13	Y13	Z13	X14	Y14	Z14	X15	Y15	Z15	X16	Y16	Z16	X17	Y17	Z17	X18	Y18	Z18	X19	Y19	Z19	X20	Y20	Z20	X21	Y21	Z21	X22	Y22	Z22	X23	Y23	Z23	X24	Y24	Z24	X25	Y25	Z25	X26	Y26	Z26	X27	Y27	Z27	X28	Y28	Z28	X29	Y29	Z29	X30	Y30	Z30	X31	Y31	Z31	X32	Y32	Z32	X33	Y33	Z33	X34	Y34	Z34	X35	Y35	Z35	X36	Y36	Z36	X37	Y37	Z37	X38	Y38	Z38	X39	Y39	Z39	X40	Y40	Z40	X41	Y41	Z41	X42	Y42	Z42	X43	Y43	Z43	X44	Y44	Z44	X45	Y45	Z45	X46	Y46	Z46	X47	Y47	Z47	X48	Y48	Z48	X49	Y49	Z49	X50	Y50	Z50	
751	3.7550	563.523311	1360.687026	-46.858103	590.653253	1319.958478	-358.794712	553.443171	1407.614769	-208.540718	526.629247	1251.485570	-183.819042	575.006365	1102.493013	50.640190	798.488394	910.179118	-37.499078	616.462451	1076.713157	-491.742084	812.969580	893.850647	-407.663715	-8.504700	1223.493123	-257.433092	163.505379	1204.279113	-380.195895	128.277523	1234.285206	-71.123208	179.324343	1159.933939	-341.430811	161.772746	1174.738205	-98.895391	19.365344	1266.412195	-203.495951	28.367910	1266.978783	-297.973294	58.655062	1123.878107	-49.065941	115.909408	1097.524551	-421.334519	188.521528	999.617843	-36.221112	266.343323	957.011671	-35.269914	312.509405	883.430447	-44.395301	291.803639	983.718899	-41.220689	397.729172	795.722956	-57.589606	360.139650	781.008409	-181.793856	354.822934	669.857855	-29.248358	369.751393	582.406465	-45.337836	338.935384	501.837180	-51.778404	398.619108	583.824823	-73.978464	318.928464	381.628477	-59.608582	333.297606	404.941727	-147.600447	247.136851	334.502402	-106.047953	538.044356	391.184477	-91.286781	457.689705	338.440592	-29.136026	205.517279	1001.983631	-413.591865	277.019810	953.314971	-399.574828	299.765329	974.565620	-380.304250	317.063371	873.658501	-399.768522	365.758990	755.693651	-380.800700	349.650377	730.838514	-272.243949	90.419704	439.888921	-398.602695	121.869680	437.645603	-312.255818	29.883727	459.731890	-357.466774	148.796785	280.231220	-414.804720	288.547635	653.224458	-408.629840	249.149778	581.256345	-396.184040	176.413776	528.252572	-399.836371	264.504549	567.628105	-358.639916	229.357147	250.063767	-346.063173	-136.452789	941.811983	-223.721586	23.949692	83.857320	-426.798785	15.281840	80.163819	-28.468436	
752	3.7600	564.377854	1357.817683	-49.901711	590.658202	1318.091015	-361.290573	554.154519	1406.465109	-210.708719	525.970529	1250.338580	-187.564008	577.730817	1101.273981	51.808652	799.343427	908.722010	-37.307906	616.900513	1074.623141	-492.773865	813.696150	893.629437	-407.427075	-7.671894	1221.266213	-255.844855	163.466551	1202.608625	-378.795267	130.030184	1231.114865	-69.491502	179.777785	1158.245284	-340.175193	163.200875	1172.165775	-97.769597	20.006539	1264.200623	-201.773238	28.979201	1265.113337	-296.586341	58.796385	1120.011653	-48.166498	117.405567	1096.630591	-420.504315	187.001927	992.924920	-35.383382	263.856026	948.904085	-34.214528	308.433251	874.388516	-44.112564	289.935919	975.149277	-40.187658	392.892631	785.834673	-57.685841	363.319317	770.701130	-176.946009	350.775086	659.176477	-28.559011	367.395623	571.959903	-44.739177	338.061556	490.867350	-51.525603	396.539606	573.771664	-73.051876	320.004511	370.414740	-59.274778	334.190090	394.047603	-147.178473	248.329376	323.573327	-105.948410	539.322094	379.600321	-91.312348	458.915131	327.108205	-29.021514	209.288687	1003.431025	-415.150303	280.767468	955.601103	-399.098230	302.812504	977.256567	-379.518019	322.836956	876.875600	-399.271793	373.548782	760.517382	-379.400673	357.213139	736.865943	-270.235598	91.807322	450.870961	-398.371768	124.069083	447.260499	-312.046535	31.232463	471.524237	-357.282129	148.255186	290.782384	-414.607781	294.525222	659.679773	-407.739803	253.493630	588.658868	-395.515326	179.629116	537.197604	-399.264655	268.717832	574.517340	-358.065180	228.460051	259.846728	-345.955934	-136.104693	941.817957	-223.458800	24.121278	83.984075	-426.676722	15.366600	80.142715	-28.429705	
753	3.7650	565.228919	1356.741869	-50.313025	590.548110	1316.769865	-363.802447	554.834770	1406.073316	-213.098865	525.546434	1250.161923	-189.895986	580.737304	1100.004513	52.064129	800.174545	907.286267	-37.212044	616.729837	1073.102898	-494.259560	814.201547	893.513574	-407.442141	-6.928069	1219.488939	-253.786628	163.454299	1201.359249	-377.074593	131.833366	1228.090906	-67.646366	180.159453	1156.805394	-338.887124	164.781546	1169.544446	-96.575104	21.112489	1261.648999	-199.820263	29.630558	1263.397884	-294.714588	59.301996	1116.085873	-47.199633	118.669520	1095.761795	-419.515958	185.553228	986.226938	-34.715215	261.831886	940.623413	-34.280592	304.546368	865.243103	-44.225934	288.176163	966.379197	-39.326166	387.876435	775.602897	-57.931190	366.345860	760.464748	-171.908256	346.857486	648.047269	-28.003007	364.757120	561.150813	-44.217696	336.727755	479.546474	-51.124037	394.061437	563.180806	-72.539768	320.470732	359.223867	-58.602177	334.293369	383.168769	-146.447464	248.643502	312.674815	-105.417731	539.811200	368.017765	-91.328296	459.329248	315.388721	-29.096926	210.567360	1003.185625	-413.223979	284.335476	958.039646	-399.010608	305.832227	980.178563	-379.104282	328.428286	880.381505	-398.948294	380.980776	765.790986	-378.763976	364.705103	743.298626	-268.001380	93.447095	462.025262	-398.078874	116.997947	455.558527	-317.072020	32.819591	483.278611	-357.012754	148.208142	301.807328	-414.717582	300.468273	666.530911	-407.122908	259.259092	599.616638	-400.772361	183.069935	546.438356	-398.613051	272.886151	581.774304	-357.389790	228.307348	270.088052	-346.277681	-135.861277	941.854406	-223.306718	24.281685	83.901228	-426.493732	15.400079	80.118774	-28.393154	
754	3.7700	566.178306	1355.906197	-50.725421	590.166675	1315.869623	-366.189447	555.011956	1405.477525	-215.111768	525.809034	1249.602855	-191.577629	583.382921	1099.690669	52.517283	800.883110	905.964786	-37.204385	616.267102	1072.054086	-495.975198	814.481360	893.600662	-407.649851	-6.424200	1217.798717	-251.505014	163.393980	1200.075890	-375.283253	133.692380	1224.998063	-65.601469	180.514543	1155.516914	-337.262530	166.518025	1166.884939	-95.311730	22.451053	1259.156701	-197.386151	30.315014	1261.783420	-292.035873	60.319187	1111.993068	-46.063114	119.649955	1095.192775	-418.367744	183.953266	979.480411	-34.517287	259.889281	932.091156	-33.948442	301.033677	856.107262	-43.897384	286.675387	957.374518	-38.626525	382.871391	765.319535	-57.853208	369.088583	750.346126	-166.709271	342.765510	637.101045	-27.576972	361.803417	550.298814	-43.626590	334.817194	468.392855	-50.438651	391.200229	552.956852	-71.630097	320.133583	348.057304	-57.679864	333.717069	372.641431	-145.354860	248.755387	301.344924	-104.990786	539.644609	356.431544	-91.268494	459.185327	303.974672	-28.900024	212.806994	1003.874935	-413.269383	287.796637	960.787837	-399.055038	308.763511	983.552119	-379.317098	333.739354	884.041448	-398.666625	388.184575	771.376582	-377.984413	372.107261	750.078776	-265.635593	95.380701	473.264974	-397.628553	119.190082	466.156421	-316.699802	34.700755	494.978592	-356.716015	148.973199	312.847914	-414.591035	306.699878	673.457841	-406.479661	262.495664	603.970847	-393.967038	186.684666	555.818362	-398.093052	277.270105	589.192959	-356.737149	228.854937	280.527533	-346.015042	-135.835278	941.881723	-223.138675	24.383379	83.946589	-426.399470	15.448118	80.104074	-28.313304	
